<svg width="1215" height="50" viewBox="0 0 1215 50" fill="none" xmlns="http://www.w3.org/2000/svg">
<circle cx="1190" cy="25" r="25" fill="#EC2529"/>
<path d="M1201.66 23.78L1194.22 16.3404C1193.77 15.8865 1193.03 15.8865 1192.58 16.3404C1192.12 16.7944 1192.12 17.5304 1192.58 17.9844L1198.03 23.4396H1178.16C1177.52 23.4396 1177 23.9601 1177 24.602C1177 25.2439 1177.52 25.7644 1178.16 25.7644H1198.03L1192.58 31.2196C1192.12 31.6736 1192.12 32.4096 1192.58 32.8636C1192.8 33.0904 1193.1 33.204 1193.4 33.204C1193.7 33.204 1193.99 33.0904 1194.22 32.8636L1201.66 25.424C1202.11 24.97 1202.11 24.234 1201.66 23.78Z" fill="white"/>
<circle r="25" transform="matrix(-1 0 0 1 25 25)" fill="#EC2529"/>
<path d="M13.3405 23.78L20.78 16.3404C21.234 15.8865 21.9701 15.8865 22.424 16.3404C22.878 16.7944 22.878 17.5304 22.424 17.9844L16.9688 23.4396H36.8376C37.4795 23.4396 38 23.9601 38 24.602C38 25.2439 37.4795 25.7644 36.8376 25.7644H16.9688L22.4238 31.2196C22.8778 31.6736 22.8778 32.4096 22.4238 32.8636C22.1969 33.0904 21.8993 33.204 21.6018 33.204C21.3044 33.204 21.0069 33.0904 20.7799 32.8636L13.3405 25.424C12.8865 24.97 12.8865 24.234 13.3405 23.78Z" fill="white"/>
</svg>
