<svg width="97" height="21" viewBox="0 0 97 21" fill="none" xmlns="http://www.w3.org/2000/svg">
<path d="M0.512695 0.0527344H4.45312L6.69434 15.0967L12.1436 0.0527344H15.8789L20.9766 14.5107L23.3496 0.0527344H27.1729L23.2324 21H19.541L13.7842 4.56445L7.60254 21H3.95508L0.512695 0.0527344ZM32.0361 21H28.0518L36.9434 0.0527344H41.1182L50.2002 21H46.0254L43.6377 15.2871H36.6797L38.0127 11.918H42.2314L38.9355 4.05176L32.0361 21ZM52.7637 21V0.0527344H62.1387C66.416 0.0527344 68.5547 2.02051 68.5547 5.95605C68.5547 10.2236 65.6299 12.8066 59.7803 13.7051L59.2236 10.248C62.7393 9.61328 64.4971 8.22168 64.4971 6.07324C64.4971 4.33496 63.6279 3.46582 61.8896 3.46582H56.6455V21H52.7637ZM75.0146 0.0527344V21H71.1328V0.0527344H75.0146ZM89.751 0.0527344L80.8154 9.82324L90.6885 21H85.3125L77.2119 11.2148V8.69531L85.0049 0.0527344H89.751ZM96.0498 0.0527344V21H92.168V0.0527344H96.0498Z" fill="#C92225"/>
</svg>
